REM MD5 42f841deec6be5e0eaadcd2cb1d08ac6
FILE "Water Summer (Japan) (Shokai Genteiban).bin" BINARY
  TRACK 01 MODE2/2352
    INDEX 01 00:00:00
  TRACK 02 AUDIO
    INDEX 00 45:31:60
    INDEX 01 45:33:60
  TRACK 03 AUDIO
    INDEX 00 48:15:61
    INDEX 01 48:17:61
  TRACK 04 AUDIO
    INDEX 00 50:58:22
    INDEX 01 51:00:22
REM LEADOUT 54:00:22
